/* XPM */
static char *_520207051441[] = {
/* columns rows colors chars-per-pixel */
"16 16 125 2 ",
"   c #959699",
".  c #95969A",
"X  c #97989C",
"o  c #989A9E",
"O  c #9A9B9E",
"+  c #9F9FA3",
"@  c #9EA0A3",
"#  c #A0A1A5",
"$  c #A3A4A6",
"%  c #A3A5A7",
"&  c #A3A4A8",
"*  c #A2A5A8",
"=  c #A6A8AA",
"-  c #A9ABAD",
";  c #A8ABAE",
":  c #A8ACAF",
">  c #ABAEB1",
",  c #ADAEB0",
"<  c #ACAFB2",
"1  c #ADB0B2",
"2  c #ADB0B3",
"3  c #AEB1B4",
"4  c #AFB1B4",
"5  c #AFB2B4",
"6  c #AFB2B5",
"7  c #B0B2B5",
"8  c #B1B2B5",
"9  c #B1B3B5",
"0  c #B2B3B5",
"q  c #B0B3B6",
"w  c #B1B4B6",
"e  c #B3B5B8",
"r  c #B4B7B9",
"t  c #B5B7BA",
"y  c #B7B9BB",
"u  c #B9BABD",
"i  c #B9BBBD",
"p  c #BABBBD",
"a  c #BBBDBF",
"s  c #BCBDBF",
"d  c #BDBEC0",
"f  c #BDBFC1",
"g  c #BEBFC1",
"h  c #BFC0C2",
"j  c #C0C1C3",
"k  c #C0C2C4",
"l  c #C1C2C4",
"z  c #C2C3C5",
"x  c #C3C4C5",
"c  c #C3C4C6",
"v  c #C3C5C7",
"b  c #C4C5C7",
"n  c #C6C6C8",
"m  c #C6C7C9",
"M  c #C7C8CA",
"N  c #C8C9CB",
"B  c #C9C9CB",
"V  c #CCCDCE",
"C  c #CDCED0",
"Z  c #CECFD1",
"A  c #CFD0D2",
"S  c #D0D1D3",
"D  c #D1D2D4",
"F  c #D2D3D5",
"G  c #D3D3D5",
"H  c #D3D4D6",
"J  c #D4D5D7",
"K  c #D5D6D8",
"L  c #D6D7D9",
"P  c #D8D9DB",
"I  c #D9D9DB",
"U  c #D9DADC",
"Y  c #DADBDC",
"T  c #DADBDD",
"R  c #DBDCDE",
"E  c #DCDDDF",
"W  c #DDDEDF",
"Q  c #DDDEE0",
"!  c #DEDFE0",
"~  c #DFDFE1",
"^  c #DFE0E1",
"/  c #DFE0E2",
"(  c #E0E1E3",
")  c #E1E1E3",
"_  c #E2E3E5",
"`  c #E3E3E5",
"'  c #E3E4E5",
"]  c #E3E4E6",
"[  c #E4E5E5",
"{  c #E4E4E6",
"}  c #E4E5E6",
"|  c #E5E5E6",
" . c #E4E5E7",
".. c #E5E5E7",
"X. c #E5E6E8",
"o. c #E6E6E8",
"O. c #E6E7E9",
"+. c #E7E8E9",
"@. c #E8E9E9",
"#. c #E8E8EA",
"$. c #E8E9EA",
"%. c #E9E9EB",
"&. c #EAEAEA",
"*. c #EAEAEB",
"=. c #EAEAEC",
"-. c #EBEBED",
";. c #EBECEC",
":. c #ECECEC",
">. c #ECEDED",
",. c gray93",
"<. c #EDEDEE",
"1. c #EEEEEE",
"2. c #EEEFEF",
"3. c #EFEFEF",
"4. c #EFEFF1",
"5. c #EFF0F0",
"6. c gray94",
"7. c #F0F0F1",
"8. c #F0F1F1",
"9. c #F1F1F2",
"0. c #F1F1F3",
"q. c #F1F2F3",
"w. c #F2F2F4",
"e. c #F2F3F4",
"r. c None",
/* pixels */
"r.r.r.r.r.r.0.0.2. .r.r.r.r.r.r.",
"r.r.r.r.0.<.;.;.*. .L V r.r.r.r.",
"r.r.r.w.w.<.%.o. .+.E F V r.r.r.",
"r.r.0.4.<.o._ ! ) ) ! D D M r.r.",
"r.4.%.%.*._ ! T R R D v h s w r.",
"r.4.o.*. ._ ) E E K n v f u 5 r.",
"w.0.*.o._ ` ` ! I B n x x u 8 1 ",
"0.0.;. .` _ _ _ A x n x x f w 8 ",
"2.<.+.T T P P F v j j j z f - 1 ",
"*.<. .P J J F N j f s s s 8 $ $ ",
"r.*.] ! K J A v z f s f t > = r.",
"r. .] / R J n z z j s u 1 , - r.",
"r.r./ R T V j z z z h 8 ; ; r.r.",
"r.r.r.j v a , 5 e t 5 & # r.r.r.",
"r.r.r.r.y h 5 ; & X X + r.r.r.r.",
"r.r.r.r.r.r.r @ . X O r.r.r.r.r."
};
