/* XPM */
static char *_520206101583[] = {
/* columns rows colors chars-per-pixel */
"32 32 222 2 ",
"   c #919294",
".  c #939497",
"X  c #939498",
"o  c #949598",
"O  c #959699",
"+  c #95969A",
"@  c #97989B",
"#  c #97989C",
"$  c #97999C",
"%  c #98999C",
"&  c #999B9E",
"*  c #9A9B9F",
"=  c #9B9CA0",
"-  c #9D9EA2",
";  c #9E9FA3",
":  c #9FA0A4",
">  c #9FA1A4",
",  c #A0A1A5",
"<  c #A2A3A5",
"1  c #A1A3A7",
"2  c #A2A3A6",
"3  c #A3A4A7",
"4  c #A4A5A7",
"5  c #A3A4A8",
"6  c #A3A6A9",
"7  c #A5A7A9",
"8  c #A6A7A9",
"9  c #A5A8AB",
"0  c #A6A8AA",
"q  c #A6A8AB",
"w  c #A7A8AB",
"e  c #A7A8AC",
"r  c #A7A9AC",
"t  c #A6AAAD",
"y  c #A7ABAE",
"u  c #A8A9AB",
"i  c #A9AAAC",
"p  c #A8AAAD",
"a  c #A8ABAE",
"s  c #A9ABAE",
"d  c #A8ACAE",
"f  c #A8ACAF",
"g  c #A9ADAF",
"h  c #ABADAF",
"j  c #A9ADB0",
"k  c #AAADB0",
"l  c #AAAEB0",
"z  c #AAAEB1",
"x  c #ABAEB1",
"c  c #ABAFB1",
"v  c #ABAFB2",
"b  c #ACAFB1",
"n  c #ACAFB2",
"m  c #ADB0B3",
"M  c #AEB1B4",
"N  c #AEB2B4",
"B  c #AFB2B4",
"V  c #AFB2B5",
"C  c #AFB3B5",
"Z  c #B0B2B4",
"A  c #B1B2B4",
"S  c #B1B3B5",
"D  c #B2B3B5",
"F  c #B0B3B6",
"G  c #B1B4B7",
"H  c #B2B4B7",
"J  c #B2B5B7",
"K  c #B3B5B7",
"L  c #B3B6B8",
"P  c #B3B6B9",
"I  c #B4B7B9",
"U  c #B5B7B9",
"Y  c #B7B8BA",
"T  c #B7B9BC",
"R  c #B8B9BB",
"E  c #B8BABC",
"W  c #B9BABC",
"Q  c #B8BABD",
"!  c #B9BBBD",
"~  c #BABBBD",
"^  c #BABBBE",
"/  c #BABCBE",
"(  c #BBBDBF",
")  c #BCBDBF",
"_  c #BCBEC0",
"`  c #BDBEC0",
"'  c #BDBFC1",
"]  c #BEBFC1",
"[  c #BFBFC1",
"{  c #BEC0C2",
"}  c #BFC0C2",
"|  c #C0C1C3",
" . c #C1C2C4",
".. c #C1C3C5",
"X. c #C2C3C5",
"o. c #C2C4C6",
"O. c #C3C4C6",
"+. c #C3C5C6",
"@. c #C4C5C7",
"#. c #C5C6C7",
"$. c #C5C6C8",
"%. c #C6C6C8",
"&. c #C6C7C9",
"*. c #C7C8CA",
"=. c #C8C8CA",
"-. c #C8C9CB",
";. c #C9CACC",
":. c #CACBCC",
">. c #CACBCD",
",. c #CCCDCE",
"<. c #CCCDCF",
"1. c #CDCDCF",
"2. c #CDCED0",
"3. c #CDCFD0",
"4. c #CECFD1",
"5. c #CFD0D1",
"6. c #CFD0D2",
"7. c #D0D0D2",
"8. c #D0D1D3",
"9. c #D1D2D4",
"0. c #D2D2D4",
"q. c #D3D3D5",
"w. c #D3D4D5",
"e. c #D3D4D6",
"r. c #D4D5D6",
"t. c #D4D5D7",
"y. c #D5D6D7",
"u. c #D5D6D8",
"i. c #D6D6D8",
"p. c #D6D7D8",
"a. c #D6D7D9",
"s. c #D7D8D9",
"d. c #D7D8DA",
"f. c #D8D9DB",
"g. c #D9D9DB",
"h. c #D9DADB",
"j. c #D9DADC",
"k. c #DADADC",
"l. c #DADBDC",
"z. c #DADBDD",
"x. c #DBDBDD",
"c. c #DBDCDD",
"v. c #DBDCDE",
"b. c #DCDCDE",
"n. c #DCDDDE",
"m. c #DCDDDF",
"M. c #DDDDDF",
"N. c #DDDEE0",
"B. c #DEDEE0",
"V. c #DEDFE0",
"C. c #DEDFE1",
"Z. c #DFDFE1",
"A. c #DFE0E0",
"S. c #DFE0E1",
"D. c #DFE0E2",
"F. c #E0E1E3",
"G. c #E1E2E3",
"H. c #E1E2E4",
"J. c #E2E2E4",
"K. c #E2E3E4",
"L. c #E3E3E4",
"P. c #E2E3E5",
"I. c #E3E3E5",
"U. c #E3E4E5",
"Y. c #E3E4E6",
"T. c #E4E4E6",
"R. c #E4E5E6",
"E. c #E4E5E7",
"W. c #E5E5E7",
"Q. c #E6E6E7",
"!. c #E5E6E8",
"~. c #E6E6E8",
"^. c #E6E7E8",
"/. c #E7E7E8",
"(. c #E6E7E9",
"). c #E7E7E9",
"_. c #E7E8E8",
"`. c #E7E8E9",
"'. c gray91",
"]. c #E8E8E9",
"[. c #E8E9E9",
"{. c #E8E8EA",
"}. c #E9E8EA",
"|. c #E8E9EA",
" X c #E9E9EA",
".X c #E9E9EB",
"XX c #E9EAEB",
"oX c #EAEAEA",
"OX c #EAEAEB",
"+X c #EAEBEB",
"@X c #EAEAEC",
"#X c #EBECEC",
"$X c #ECECEC",
"%X c #ECEDEC",
"&X c #ECECED",
"*X c gray93",
"=X c #ECECEE",
"-X c #EDEDEF",
";X c #EEEEEE",
":X c #EEEEEF",
">X c #EEEFEF",
",X c #EFEFEF",
"<X c #EEEEF0",
"1X c #EFEFF0",
"2X c #EFEFF1",
"3X c #EFF0F0",
"4X c gray94",
"5X c #F0F0F1",
"6X c #F0F0F2",
"7X c #F0F1F2",
"8X c #F1F1F2",
"9X c #F1F1F3",
"0X c #F2F2F3",
"qX c #F2F3F3",
"wX c #F2F2F4",
"eX c #F2F3F4",
"rX c #F3F3F5",
"tX c #F3F4F5",
"yX c #F4F4F5",
"uX c #F4F4F6",
"iX c #F4F5F6",
"pX c None",
/* pixels */
"pXpXpXpXpXpXpXpXpXpXpXpXpXpXiXyXyX9XpXpXpXpXpXpXpXpXpXpXpXpXpXpX",
"pXpXpXpXpXpXpXpXpX4X=X9X4X9X4X,X=X4X.XS.3.pXpXpXpXpXpXpXpXpXpXpX",
"pXpXpXpXpXpXpXpX9X=X$X%X%X$X$X%X#X.X`.Y.a.3.2.3.pXpXpXpXpXpXpXpX",
"pXpXpXpXpXpXpXwX9X4X$X%X%X%X$X.X`.W.`.W.v.t.3.>.<.pXpXpXpXpXpXpX",
"pXpXpXpXpXpXwX9X9X9X=X%X#X.X).).W.).!.`.D.t.t.6.>.&.pXpXpXpXpXpX",
"pXpXpXpXpXyX9X9X9X9X9X=X.X).).).`.Y.!.!.!.j.t.t.8.>.@.pXpXpXpXpX",
"pXpXpXpXyX9X9X9X9X3X=XW.P.G.P.Y.Y.Y.).!.!.N.d.a.a.q.>. .pXpXpXpX",
"pXpXpXyXwX9X1X=X.X.X.XP.n.v.v.n.v.S.B.S.S.v.2.3.8.q.3. .) pXpXpX",
"pXpXyX1X.X.X.X.X]..XY.P.B.v.v.v.v.v.v.v.v.<.@.) ` }  .! H ! pXpX",
"pXpXiX@X.X).)..X.X).P.P.P.v.v.v.v.v.v.n.q.=.@. .) ) ` ! n m pXpX",
"pXpXwX=X)..X.X.X`.Y.Y.P.P.B.v.v.v.n.n.l.@.@.@.@.` ) ) Y H x pXpX",
"pXiXwX1X.X)..X`.W.G.Y.Y.P.P.n.n.n.n.l.<.@.@.@.=. .) ` Y H m M pX",
"pXwX9X3X.X.X`.).P.P.P.P.W.Y.S.n.v.v.7.@.@.@.@.@.@.) ) W A A g pX",
"pXwX9X9X@X.X.XY.P.P.P.Y.Y.W.P.v.v.a.&.@.@.@.@.@.@.@.) W A D m pX",
"9XqX9XiX=X).W.P.P.Y.Y.Y.G.P.Y.S.v.=.@.@.@.@.@.@.@.@. .! A A D pX",
"9X9X9X9X9X.XY.Y.Y.Y.Y.P.P.P.P.G.7.&.@.@.@.@.@.@.@.@.@.) A A H H ",
"9X9X9X4X1X!.D.B.B.N.v.v.v.v.v.t.@. .@. . . .&.@.@.@.&. .D A A U ",
"%X%X%X=X#XS.t.t.t.w.a.t.q.q.q.>. .) ` ` ) ` ) ` ` ` ` ! a 8 8 i ",
"pX%X=X=X@XS.j.w.t.t.t.t.a.q.7.@.&.` ` ` | ` ` ` ) ! _ n 4 < < pX",
"pX.X=X#X#XD.B.a.t.t.q.a.q.a.=. . . .` ` ` ` ` ` ) ` M a 8 < 4 pX",
"pXS.=X%X.XS.S.N.t.t.t.t.a.3. .@. .@.` ` ) ) ` ` ) Y y y 0 < 8 pX",
"pXpXW.%X`.S.D.D.j.q.t.t.q.>. . . . . .` ) ) ` ` _ g y g a 8 pXpX",
"pXpXA.%X).S.D.D.B.t.t.t.3. . .@.&. .&.` ) ) ) ) C x x n g 8 pXpX",
"pXpXl.'.).D.D.D.D.v.t.q.&.@. . . . . . .) ) ) L g m m n a pXpXpX",
"pXpXpXP.W.D.D.D.B.S.l.3. . . .o.@. . . .` ` ! n g f a x M pXpXpX",
"pXpXpXpXG.n.x.v.l.d.w. .}  .o. .O. .@.O. .` M j f f 0 y pXpXpXpX",
"pXpXpXpXpXo.@. . . .o.H x M M L T _ |  .&.U y q 5 : : pXpXpXpXpX",
"pXpXpXpXpXpX! `  .}  .! y y y y x x n x q 5 ; - - : pXpXpXpXpXpX",
"pXpXpXpXpXpXpXD ! }  .} m f x x x f 5 # X = ; - : pXpXpXpXpXpXpX",
"pXpXpXpXpXpXpXpXx H ! o.T x f f 5 % X X X % < < pXpXpXpXpXpXpXpX",
"pXpXpXpXpXpXpXpXpXpXH } } x 0 - + + # # & & 3 pXpXpXpXpXpXpXpXpX",
"pXpXpXpXpXpXpXpXpXpXpXpXpXH @ + .   pXpXpXpXpXpXpXpXpXpXpXpXpXpX"
};
