/* XPM */
static char *_520206019223[] = {
/* columns rows colors chars-per-pixel */
"128 128 54 1 ",
"  c #7A7C7E",
". c #7C7E80",
"X c #808183",
"o c #87888B",
"O c #8B8C8E",
"+ c #8D8F91",
"@ c #8F9193",
"# c #929397",
"$ c #939498",
"% c #97989C",
"& c #9A9B9E",
"* c #9D9EA2",
"= c #9FA0A3",
"- c #A2A3A5",
"; c #A5A6A9",
": c #A7ABAE",
"> c #A9ACAE",
", c #ABAEB1",
"< c #AEB1B3",
"1 c #B1B2B4",
"2 c #B4B6B8",
"3 c #B6B9BB",
"4 c #BCBDBF",
"5 c #BDBEC1",
"6 c #BFC0C2",
"7 c #C3C4C6",
"8 c #C5C6C8",
"9 c #C7C8CA",
"0 c #CACBCC",
"q c #CDCFD0",
"w c #CFD0D2",
"e c #D4D5D7",
"r c #D6D7D8",
"t c #D8D7D8",
"y c #D7D8DA",
"u c #DBDCDE",
"i c #DEDFE1",
"p c #DFE0E2",
"a c #E2E3E5",
"s c #E5E6E8",
"d c #E9E7E9",
"f c #E7E8EA",
"g c #EBEBEC",
"h c #EFF0EF",
"j c #F0F0EF",
"k c #EFEFF0",
"l c #EEF0F1",
"z c #F2F2F3",
"x c #F7F8F7",
"c c #F8F8F7",
"v c #F7F7F8",
"b c #F7F8F9",
"n c #F9F9FA",
"m c None",
/* pixels */
"mmmmmmmmmmmmmmmmmmmmmmmmmmmmmmmmmmmmmmmmmmmmmmmmmmmmmmmmmmmmmmmmmmmmmmmmmmmmmmmmmmmmmmmmmmmmmmmmmmmmmmmmmmmmmmmmmmmmmmmmmmmmmmmm",
"mmmmmmmmmmmmmmmmmmmmmmmmmmmmmmmmmmmmmmmmmmmmmmmmmmmmmmmmmmmmmhlzllmmmmmmmmmmmmmmmmmmmmmmmmmmmmmmmmmmmmmmmmmmmmmmmmmmmmmmmmmmmmmm",
"mmmmmmmmmmmmmmmmmmmmmmmmmmmmmmmmmmmmmmmmmmmmmmmmmmmmmmmmhhxcbnnnnnnbzzlhmmmmmmmmmmmmmmmmmmmmmmmmmmmmmmmmmmmmmmmmmmmmmmmmmmmmmmmm",
"mmmmmmmmmmmmmmmmmmmmmmmmmmmmmmmmmmmmmmmmmmmmmmmmmmmlzbnnccxcbbbbvnnnnnnccxzlgmmmmmmmmmmmmmmmmmmmmmmmmmmmmmmmmmmmmmmmmmmmmmmmmmmm",
"mmmmmmmmmmmmmmmmmmmmmmmmmmmmmmmmmmmmmmmmmmmmmlllcnncnncbccxcxxxxzzzjhgzjgglggaemmmmmmmmmmmmmmmmmmmmmmmmmmmmmmmmmmmmmmmmmmmmmmmmm",
"mmmmmmmmmmmmmmmmmmmmmmmmmmmmmmmmmmmmmmmmzlzxxxxxxzzzzlzgjgggdgdggggggzgghhdafpye0wmmmmmmmmmmmmmmmmmmmmmmmmmmmmmmmmmmmmmmmmmmmmmm",
"mmmmmmmmmmmmmmmmmmmmmmmmmmmmmmmmmmmgzzczzjzjhhggggggggggjgggggggggggjgghgfafffrye90wqmmmmmmmmmmmmmmmmmmmmmmmmmmmmmmmmmmmmmmmmmmm",
"mmmmmmmmmmmmmmmmmmmmmmmmmmmmmmmmmmzckkggghhghghhhhjjjgjggjghgggggghzghjdfasfadueyr0000wmmmmmmmmmmmmmmmmmmmmmmmmmmmmmmmmmmmmmmmmm",
"mmmmmmmmmmmmmmmmmmmmmmmmmmmmmmmmmzzzzggkgjgjgjgjggjgjgjjjjjjjjjjkklkkkssaffsafaeryr090000wmmmmmmmmmmmmmmmmmmmmmmmmmmmmmmmmmmmmmm",
"mmmmmmmmmmmmmmmmmmmmmmmmmmmmmmmmgzzzzkgggggdggggggjgjggggggggghgkzzkfgfggdfffdfuyeyy09990000qmmmmmmmmmmmmmmmmmmmmmmmmmmmmmmmmmmm",
"mmmmmmmmmmmmmmmmmmmmmmmmmmmmmmmgzzkzzzgkgjdjgjgggggggggjggggggghglkdkassfsfffdgsyyuuareee0qqqqqmmmmmmmmmmmmmmmmmmmmmmmmmmmmmmmmm",
"mmmmmmmmmmmmmmmmmmmmmmmmmmmmmmzzzzzzzzkdggjdjdgjjgjgjgggjgjggghjgdaadkdsssssfsssrerery00qwqwqeeeyummmmmmmmmmmmmmmmmmmmmmmmmmmmmm",
"mmmmmmmmmmmmmmmmmmmmmmmmmmmmmmxzzzzzzjjjgggjggjgggjggggggggggjjhfffassffsssfaaffurreryyq999900909eummmmmmmmmmmmmmmmmmmmmmmmmmmmm",
"mmmmmmmmmmmmmmmmmmmmmmmmmmmmmbzzjzzzzjcjgjgdgjggjggggjgjjgggjjgaffafsssdfdsfffsfareereeye800090099r0mmmmmmmmmmmmmmmmmmmmmmmmmmmm",
"mmmmmmmmmmmmmmmmmmmmmmmmmmmmvzzlzjzzzzjjgdjggggggjgjggggggjjjdassfffssssdffdssaffyerreeeyr90000009q09mmmmmmmmmmmmmmmmmmmmmmmmmmm",
"mmmmmmmmmmmmmmmmmmmmmmmmmmmbzzzzzzzzzjjjjjgggjgjgggggjggggjgaddssafassssssfffsssfueeeeerrue90090900e80mmmmmmmmmmmmmmmmmmmmmmmmmm",
"mmmmmmmmmmmmmmmmmmmmmmmmmmnzzzzzzzzzzzzzzgggggjgkgfkkglfllsassssssafssafssssffffsseeeeeeeeyeq8090000q60mmmmmmmmmmmmmmmmmmmmmmmmm",
"mmmmmmmmmmmmmmmmmmmmmmmmmnzzzzzzkzzzzzzzzgggggggdgkkflfllssssassfasssssssssssfffsfieeeeeeeeyeq000900e868mmmmmmmmmmmmmmmmmmmmmmmm",
"mmmmmmmmmmmmmmmmmmmmmmmmnzzzzkzzzzkzzkzkzkkkggkgkfkfkklfssssssssssasssssssspsssfffseeeeeeeeeyuq909000w570mmmmmmmmmmmmmmmmmmmmmmm",
"mmmmmmmmmmmmmmmmmmmmmmmnczzzzzzzzzzzzzzzzkkgkgggkfgglffsssssssssssfssssassssssssffgieeeeeeeeeeuq90908e8679mmmmmmmmmmmmmmmmmmmmmm",
"mmmmmmmmmmmmmmmmmmmmmmnnzkzzzzzzzzzzzzzzzzzggggkgggkflssassssssssssssssssssssssssskpeweeeeeeeeeiw80000w6778mmmmmmmmmmmmmmmmmmmmm",
"mmmmmmmmmmmmmmmmmmmmmnzzzzzzzkkzzkkzzzkzkzzkggkggzgffasssssssssssssssssssssssssssssgiieeeeeeeeeeue9909e85670mmmmmmmmmmmmmmmmmmmm",
"mmmmmmmmmmmmmmmmmmmmnnzzzkzzkzzzzzzzkzzkzkzzggkgkffgssssssssssssssssasssssssssssssffiiireeeeeeereut9000w66660mmmmmmmmmmmmmmmmmmm",
"mmmmmmmmmmmmmmmmmmmnnzzzzzzzzzzzzzzzzzzzzzzzkgkgfddfssssssssssssssssssssssssssssssppieeiieeeeeeeeett009e967670mmmmmmmmmmmmmmmmmm",
"mmmmmmmmmmmmmmmmmmvvzzzzzkzzzkzzzzzkzzzzzzzzzkdaffsssssssssssssspsssssspfsssssssssssfieeiireeeeeeeett000e667900mmmmmmmmmmmmmmmmm",
"mmmmmmmmmmmmmmmmmvvvzzzzzzzzzzzzzzzzkzzzzzzzzdafgffffsfssssssssssssssfssfssssspfpfssfpweweiieeeeeeeetuq8w0908769mmmmmmmmmmmmmmmm",
"mmmmmmmmmmmmmmmmnnzzzzzzzzzkkzzkzzzzzzzzkgdgdappuiiippaassssssfsfssspfffssssssssssssssyeeewiieeeeeeeeetqwu9667669mmmmmmmmmmmmmmm",
"mmmmmmmmmmmmmmmbnnzzzzzzzzzzzzzzzzzzkggdddddadpuuuuuuuiuuuupppaassssfffpsssssssssssspsieeeeweuueeeeteeuaew06666779mmmmmmmmmmmmmm",
"mmmmmmmmmmmmmmvvvzzzzkzzzzzzzzzzzkgfdddfddgsdfauuuuuuuuuuuuuuuuuiyyiiiiipspsfssssfsssspyeeyeeeyiteeeuutetwe7676677emmmmmmmmmmmmm",
"mmmmmmmmmmmmmvnvzzzzzzzzzzzzzkgfdgffgfdfdgfdspfiuiuuuuiuuuuuuuuuiiiiiyiriiiriiiipppisspiyrrrryeruuuuteeeeutq6678876mmmmmmmmmmmmm",
"mmmmmmmmmmmmznvzzzzkzzzzzzzgddffffffffgfdgdsaaspuuuuuuuuuuuuuuuuyiiyiyiiiriiiiyiiiiiiiii868800qeuupteetuttua88862226mmmmmmmmmmmm",
"mmmmmmmmmmmznnzzzzzzzzkggdggffffffffdfddggaaaapaiuuuiuuupuuuuuuuiyyiyiiriiriiyiyiiiriiw89555556874500667788et62122238mmmmmmmmmmm",
"mmmmmmmmmmbbnzzzzzkkdddffffkkddffddddddfkaaaaaaaauuuuuuuuuuuuuuuuuuiuuuuuuuuuuuutitiit8707468875445479644436936531224mmmmmmmmmmm",
"mmmmmmmmmmnnzzzzgdsdddfffffsfkfdfgffffgzaaaaaaaasuuuuuuuuuuuuuuuuiuiuuuuuuiuuuuuitiii0788q78744444444588444673>1643127mmmmmmmmmm",
"mmmmmmmmmvbvgddfgdffdfgffdgsdfggddfdfdksaaaaaaaasauuuuuuuupuuuuuuuuuiuuuuuuuuiiuittit6780tw44444444444479746641;>364228mmmmmmmmm",
"mmmmmmmmmnnzdffffdfdddddfddgddggkdgfgkdsaaaaaaaaasuuuuuuuuuuuuuuuuuuuuuuuuuuuuuuiiit780w07064445444444446974714;>;>3737mmmmmmmmm",
"mmmmmmmmznvzgddffdfdgfffdfdddffgfkdkdkspaaaaaaapaaauuupuuuupuuuuuiituuuuuuuuuuuutiu00t88778044544544444444709141>>::>279mmmmmmmm",
"mmmmmmmmnvczkdffffgdddfdgfgfdfdfddkkddaaaaaaaaaaaasuuuuupuuuuuupuuiiuuuuuiuuuuuuiitq0777787q7444444444546444q414>>:>:::5mmmmmmmm",
"mmmmmmmznnzzzfffdffddddddffffddffgggzspaaaaaaaaaaaspuuuuuuuuuuuuiitiuuuuuiuuuutuai0778878787064444454544444474661:::::::2mmmmmmm",
"mmmmmmmvvnzzzfgfddgfffgfddfdfgdfkgsggsaaaaaaaaaaaaasuuuuuuuuuuuueitiuuuuuuuuuiidi07778787878004545444444444671168>::::::<mmmmmmm",
"mmmmmmlnvczzzgddfdfgdddffffddffggfffasfsaaaaaaaaaaaapuuuuuuuuuuuiiiireiiuuuuaaiiq787878787877q74454444444444731,48<:::::,mmmmmmm",
"mmmmmmlnvzzzzgddfdfffdffdfddfdkgffgspaafspaaaaaaaaaasuuuuuuuuuuuieeiiieiuuiaiuit77787878787878044454455445447311<632,:::,mmmmmmm",
"mmmmmmvvczzzzzdfdddfffgdgddggkgdfgfaaaaassaaaaaaaaaaspuuuuuuuuyiiiiiiiiiaaiuuuu8778787878787870044444444444473,1<22<4<::>2mmmmmm",
"mmmmmmvvzzzzkzkdgfffdfddfdfskdfdfgsaaaaaassaaaaaapaaaauuuuuuuiiyieeieiiiiuuuuiq788787878787878706454445444447311116<>22::<mmmmmm",
"mmmmmknvzzzzzzgdffgddfdfddgkgddfgsaaaaaaaasssaaaaaaaasuuuuuuiyiiiiiiiiiiuuuuit77878787878787878804445454445474111<24::,4<<mmmmmm",
"mmmmmknvkzzkzzkdfdddgffdfgkdfdffkaaaaaapaaaasspaaaaaassuuuuuriyieiiiiieiuuuit888787878787878787707444444444465111114,:::24mmmmmm",
"mmmmmvnzzzzzzzzddfffddgdfksddffgfpaaaaaaaaaaasssaaaaaasuuuuuririiiieiiiiuuiiq78787878787878787789q5454445444561111114::::<7mmmmm",
"mmmmmvvzzzzzzzzfddgfdffggfdfdgffaaaaaaaaaaaaaassaaaaaassuuuuiippiiiieieiitit77787878787878787887709444544454571111115<::::<mmmmm",
"mmmmlnvlzzkzkzzgfffdfdgkgddffdfsaaaaaaaaaaaaaaaassaaaaasiiiiipiiieiiriyyiii6960678787878787878788707444444444711111114>;>>1mmmmm",
"mmmmlnvzzkzzzzzkddddfkksfddfdgdaaaaaaaaaaaaaaaaaassaaaaaaiipiiiyiieiiiiiriq969998787878787878787778w4444444447111111141;>>:mmmmm",
"mmmmvvkzzzzzkzzzddddggsdfffffgsaaaaaaaaaaaaaaaaaaassaaaafauuiirieiiiieiiie669669787878787878787887700444644447111111114>>:>1mmmm",
"mmmmnvzzzzkzzzkzgdfkgdddffddgdaaaaaaaaaaaaaaaaaaaapsssssspiuyiiyiieiieiiy66999698787878787878787787806444444481111,11,41>:><mmmm",
"mmmlnzzzzzzzzzzzkskffffffffdfaaaaaaaaaaaaapaaaaaaaaasksaasiuuuuuieeiieiiq5696699787878787878787887870044446447311111,114:::<mmmm",
"mmmgnzzzzzzkzzkzzkfdffgfffgkspaaaaaapaaaaaaaaaaaassssassaspiuuuuiiiiiiie5996999687878787878787877878707444444731111111132::<mmmm",
"mmmvnzzzzzzzzzzzzdddfdffffffaaaaaaaaaaaaaaaaaaaassaaaaasfasuuuuueeieyie9999969697878787878787878878778w44644464>1,1111116>::2mmm",
"mmmbzzzzzzzzzkkvzgdgffdgffgsaaaaaaaaapaaaaaaassssaaaaaaasfsauuuuiiiiii6696699969878787878787878778787700444446411111111123::<mmm",
"mmmnzczzzzzzzzvzzzsdffkdsdsaaaaaaaaaaaaaaaaasssaaaaaaaaspssfiuuuiiiiiq589585959978787878787878788787877w7444464111111111<6<:<mmm",
"mmgvzzzzzzzzkvkzzzdfdfdddkaaaaaaaaaaaaaaaasssaaaaaaaaaapspafsuuuieiii88899998858878787878787878778787878q44446411,111111122::mmm",
"mmxzzzzzzzkzvkkzzzddffddgsaaaaaaaaaaaaaasfsaaaaaaaaaaaaaaaaafapueiii85886855899878787878787878788787788708444671111111111<4,:2mm",
"mmblzzzzzzzvzzzzzzkddddfgaaaaaaapaaaaasssaaaaaaaaaaaapaaaaaaaaapeiiq7858989985888787878787878787787887878q44447111111,111124:2mm",
"mmzzlvzzkzzzzzzzzzzfsfdkaaaaaaaaaasasfsaaaaaaaaaaaaaaaaaaaspssupiii58588888858857878787878787878787878788804447111111<111114<<mm",
"mgvzzzzzvzzzkzkzzzzfdddfaaaaaaaaaasssaaaaaaaaaaaaaaaaaaaaapsaapuii05888885889889878787878787878787878787870844711111111111114:mm",
"mzvzlzzzzzzzzzkzzzzgfdgsaaaaaaaasssaaaaaaaaaaaaaaaaaaaaaapspaasuiww9598888855885787878787878787878787878877q44711111111<111<412m",
"mzlzzzzzzzzkzzzzzzzgfddaaaaaaasfsaaaaaaaaaaaaapaaaaaaapapspsaaspr79q085885889889878787878787878787878787787004711,11<1111111151m",
"hzzzzcczzzzzjjjjzzzjffaaaaaaddsaaapappspppspspppaaassassssssssfdq000ew09988788878868687878787878787878788787q67211<211111111134m",
"hzzzzzjzlzzzjjxczzzjhsaaaaddsasssaffsssssssaasspappiiiuiuurrrrrr757770w08000000000000008878787877778878778787q72<11<11111111119m",
"lzzzzxjjzzzzxjjjzzjxgaasdsaiiauuiuyyiryyyeyeeeeeeeeweeeeeweeeer885553359634444666688888800000q00000808887777700411<11111>>1>113q",
"hzjhghjjghghghgjhgghdtuuteeeeeeeweeeeeeeeeeeeeyeeeeeeeeeeeeeeuq50555555508444544444444444444467677888800q0q000t73333333444443440",
"szhgggjghgghggggghfhfsteeeteeeeeeeeeyeeeeeeeeeeeeeeeeeeeeeeeer777055555348854444454454444444544444444444355575e5>>,>,,,>>>,,>>>4",
"mlggjgjggggggggjgghjfayeeeeereeeeeeeeeeereyeeeeeeeeeeereeeeerq5770553555447854544444444544454454444444445454577,=-=-==---==-==;m",
"mghgggjhghghgjggjjggpppteeeeeeeeeeeeeeeeeeeeeeeeeeeeeeeeeeere7776895535344460744544444444454444444444444444458:3------------;;1m",
"mmghggjgggggggjjjghgppaueeeeeeeeeereeeeyeeeeyeeeeeeeeeeeeeeu977777q55555454448844445444444445454445444544455q,:3-------------;mm",
"mmfgghjgjgggjjjgggggippatrreeeeryeeeeyeeeeeeeeeeeeeeeeeeeeie5875769944444444447944444454444444644454444444485;:2------------->mm",
"mmugggjgggjjjggggghgiippirereeeeeeeeeeeeeeyeeeeeeereereeeee85777777q5454545445470644444444544444444444545468:::2;;--;--------1mm",
"mmmsghjgjjjggjgjjgjgipppauereeeeeeeeeyeeeeeyeeeeeteeerreeee6887876797454445444446074444454544444444544444401:::2>----------->mmm",
"mmmuggjjjggggggggggfppppiarereeeeeeyeeeeeeeeeeyeeeeeeeeeei9575757777044444444444448854444444454454444444484;:::2>-----------1mmm",
"mmmrgjjggggggggggggsaiiapaareeeeeeeeeeeeeeeeeeeeeeerereeew588668776707445445444454478644444444444444544467;>>>:,1=---------;mmmm",
"mmmmajgjjggjgjgjgghfiiiippayeeeeeeeeeeeyeeeeeeeyyeeeeeeei9866966777770444444544544446074454444644444444481>>>>:,1=-----;--->mmmm",
"mmmmtdhhggggjggghghaipaippuarereyeeeeeeeeyeeeyeeeeeeeeeyw669866877767064444444444444468844544444444544484;>;;,,,1----------1mmmm",
"mmmmeugjgjgjgggjgghaipiippaaieeeeeeyeeeeeeeeeeeeeeeeeeeu968668966777770454454454444444488444644454445478;>>>>;;,3--------->mmmmm",
"mmmmmrdhgggjgjgggghappppppppsueeeeeeeyeeeeeeeyeeeeeeeeiq66606696777777064444444544445454704444445355666,::::::::3---------1mmmmm",
"mmmmmeuzggggggjghggappppppppuarreeeeeeeeeeeeeeeereeerei666669669776776994444454454454444460744445555665:::::::::3;----;--;mmmmmm",
"mmmmmerkhggjjggggggapppppppppapeeeyeeeeeeyeeeeeeeeeeeyq66660966977777670544445454454444444408444356666::::::::::1>------->mmmmmm",
"mmmmmmeshgggggjgghgppppppppppiaueeeeeeeeeeeeyeeeeeeeer66606669667677777904444444444444544444704455666,::::,:::::1>-------1mmmmmm",
"mmmmmmeyjggggggggggppppppppppppaeeeeeeeyereeeeeeeeeeiw66060660697767776705444444454444444444460735392:::::::::::1,------>mmmmmmm",
"mmmmmmeydjgggjgjgkgppppppppppppaieeeyeeeeeeeeeeeeeerr60606666669777777770744454444445454464444406566::::,::::,::11-----;3mmmmmmm",
"mmmmmmmeujggjgggggfipppppppppppppieeeeeeeereeeeeerwi066960669966677777767q4445544445454444444444606<::::::,:::::>1---;13mmmmmmmm",
"mmmmmmmytajggggjfkfppppppppppppppaeeeeeereeeeereerrr666066606669777767777074444454444444444444446w6,::::,:::::::>1->11;;mmmmmmmm",
"mmmmmmmuethgggjgkgsippppppppppppppieeeeeeeeeereerey06666666660067677777777q44454444544545454444466,5<:::::::::::>411;--1mmmmmmmm",
"mmmmmmmmtwdhggggfksipppppppppppppppiereeeeereeeewrw6069606006666777777767607444444444544444444466,:,5<:::::::::246;---;mmmmmmmmm",
"mmmmmmmmiwujggjggksippppppppppppppipeeeeeeeeeeerri06666666666006777676767770444444444444454544482::::25=::::><32>1;---<mmmmmmmmm",
"mmmmmmmmuweggjggkkpippppppppppppppiiiereereeeeeerr6060606060666677777777677064444454445444444474::::::<6>:<242,:>1>---mmmmmmmmmm",
"mmmmmmmmttwpjggggkippppppppppppppppppieeeeeereeei6660606666060606777777777770444454444454544557>::::::::642<:::::1>-->mmmmmmmmmm",
"mmmmmmmmmwwtgjjgkgipppppppppppppppppspeeeereeerre666666660666066776767777777q544444545444445481>::::::,2352::::::,,--1mmmmmmmmmm",
"mmmmmmmmmuwwagggkgppppppppppppppppppppieeeeeeeei0660606066066660777777777776784444444545444474;>:::::55<::23::::>,1->mmmmmmmmmmm",
"mmmmmmmmmmtwtjggglpppppppppppppppppppipyeeeeeerq60666666006660667677777667777q444544444445457;>>:::25::::::<4<:::>2-<mmmmmmmmmmm",
"mmmmmmmmmmmtwsgghgiippppppppppppppppppaateeeeey777767777660606065777777677767975535552555556<:;;<62::::::,::,5<:::2=mmmmmmmmmmmm",
"mmmmmmmmmmmieyjgggiipppppppppppppppppppattetetq777777776066606667777777777777605555255555565::<55:::::::::::;;25::2,mmmmmmmmmmmm",
"mmmmmmmmmmmmuedggdiippppppppppppppppppppateert7777677677666q6066777667776777750835555555555:<55::::::::::::::::<5:25mmmmmmmmmmmm",
"mmmmmmmmmmmmmyuhgfiappppppppppppppppppppiieet0777777777706666660777777777777776q5555525556252:::::::::::::::::::>57mmmmmmmmmmmmm",
"mmmmmmmmmmmmmmugjfiiaippppppppppppppppppaautt7777677776766q6666677577777767777605555555599<,:::::::::::::::::,<222mmmmmmmmmmmmmm",
"mmmmmmmmmmmmmmmgjaiiiiiipppppppppippppppaisu06777777777766666q6q7777777677777778855355609:::::::::::::::,;,222,-;mmmmmmmmmmmmmmm",
"mmmmmmmmmmmmmmmmjaiaaaiaapipiaaaaaaappiiuuuu8999777767776q666q665777767677777677q5359065,:::::::::::::<222,:***-mmmmmmmmmmmmmmmm",
"mmmmmmmmmmmmmmmmzdiiiiiuuuutreewq000998877691<224789898766q6666677777777777677767q706565:::::::::::<<25:;*****;mmmmmmmmmmmmmmmmm",
"mmmmmmmmmmmmmmmmmse87777755675566666666657574:;:::>:<3566606666q7766886876776768qe75555:::::::;,55<::********=mmmmmmmmmmmmmmmmmm",
"mmmmmmmmmmmmmmmmmm087666765757676766766675778:::::::::=,,:<5266688878686777768qq877556,::::>1351:=**********:mmmmmmmmmmmmmmmmmmm",
"mmmmmmmmmmmmmmmmmmm759755675766766676766577582::::::::::::::::::,<2556888888qq7667q57<::1233,;****=****=***;mmmmmmmmmmmmmmmmmmmm",
"mmmmmmmmmmmmmmmmmmmm22797557567567666667665577:::::::::>::::::::::;:::::<5888888888q72331:=***************;mmmmmmmmmmmmmmmmmmmmm",
"mmmmmmmmmmmmmmmmmmmmm2:499656667666676667576681:,::::::::::::::::::::::<5<::::,,238e5,-********=****=****;mmmmmmmmmmmmmmmmmmmmmm",
"mmmmmmmmmmmmmmmmmmmmmm4:>5976766767666765766674::::,>::::::,:::::::::252,:::::,:,2;*:%**=***=**********=;mmmmmmmmmmmmmmmmmmmmmmm",
"mmmmmmmmmmmmmmmmmmmmmmm4::199667667666676676678>::::>:>::::::::::::<52::::::::,2,%##,******=******=****:mmmmmmmmmmmmmmmmmmmmmmmm",
"mmmmmmmmmmmmmmmmmmmmmmmmm>;:49757666676677666792::::>:::::::::<::25<:::::::::1,*##$#*>*******=********:mmmmmmmmmmmmmmmmmmmmmmmmm",
"mmmmmmmmmmmmmmmmmmmmmmmmmm>>:,687575757474776777::::::::>:::::,25<:::::::::<2=$$$$$$#>=**=***********;mmmmmmmmmmmmmmmmmmmmmmmmmm",
"mmmmmmmmmmmmmmmmmmmmmmmmmmm1:::28857577467747448<:::::::>:::,24<:::::::::<2;$#$$$$$$#&,*******=****&;mmmmmmmmmmmmmmmmmmmmmmmmmmm",
"mmmmmmmmmmmmmmmmmmmmmmmmmmmm:::::3977477675767776:::::::::<22<:::::::::,2:$#$$$$$$#$##;-***********>mmmmmmmmmmmmmmmmmmmmmmmmmmmm",
"mmmmmmmmmmmmmmmmmmmmmmmmmmmmm>::::<68747747667576,:,::::<32<::::::::::2,*#$$$$$$$$$$$#&,**=*******>mmmmmmmmmmmmmmmmmmmmmmmmmmmmm",
"mmmmmmmmmmmmmmmmmmmmmmmmmmmmmm<>::::28864747577466::=,<32,:::::,::::<<=$#$$$$$$#$$$$$$#:;********;mmmmmmmmmmmmmmmmmmmmmmmmmmmmmm",
"mmmmmmmmmmmmmmmmmmmmmmmmmmmmmmm1::::::498477764760::<55,:>::::::::<2;$#$$$#$$$$$$$$$$##$,*******;mmmmmmmmmmmmmmmmmmmmmmmmmmmmmmm",
"mmmmmmmmmmmmmmmmmmmmmmmmmmmmmmmm1::::::<7874477666623,::::::::::,2:$$$$$$$$$#$$$$$$$$$$#;;**=;;<mmmmmmmmmmmmmmmmmmmmmmmmmmmmmmmm",
"mmmmmmmmmmmmmmmmmmmmmmmmmmmmmmmmm1:::::::2787447qw6::::::>:::::2<*##$$$$$$$$$$$$#$$$##$$%2;,,>5mmmmmmmmmmmmmmmmmmmmmmmmmmmmmmmmm",
"mmmmmmmmmmmmmmmmmmmmmmmmmmmmmmmmmmmm2,:::::4979q6662:::<:::::1<=##$$#$$$$$$$$$$####$*-;;->,**3mmmmmmmmmmmmmmmmmmmmmmmmmmmmmmmmmm",
"mmmmmmmmmmmmmmmmmmmmmmmmmmmmmmmmmmmmmmm2<:::3qq66666:::::::<2;$#$$$$$$$#$$$#@$#**-;;-*$###>*4mmmmmmmmmmmmmmmmmmmmmmmmmmmmmmmmmmm",
"mmmmmmmmmmmmmmmmmmmmmmmmmmmmmmmmmmmmmmmmmm662:<80666::::><2:$#$$$$#$$$###$$***=;-&$$#$&&%$;9mmmmmmmmmmmmmmmmmmmmmmmmmmmmmmmmmmmm",
"mmmmmmmmmmmmmmmmmmmmmmmmmmmmmmmmmmmmmmmmmmmmm2<<666q3:::2>&#$$######$$&*=,<:;******--;mmmmmmmmmmmmmmmmmmmmmmmmmmmmmmmmmmmmmmmmmm",
"mmmmmmmmmmmmmmmmmmmmmmmmmmmmmmmmmmmmmmmmmmmmmmmm23906:<<*$#$%&&&**>>->>;*$++O+++mmmmmmmmmmmmmmmmmmmmmmmmmmmmmmmmmmmmmmmmmmmmmmmm",
"mmmmmmmmmmmmmmmmmmmmmmmmmmmmmmmmmmmmmmmmmmmmmmmmmmmyy63=*=&&%&&&**%+X   ..mmmmmmmmmmmmmmmmmmmmmmmmmmmmmmmmmmmmmmmmmmmmmmmmmmmmmm",
"mmmmmmmmmmmmmmmmmmmmmmmmmmmmmmmmmmmmmmmmmmmmmmmmmmmmmmmmm  .#%#o.   mmmmmmmmmmmmmmmmmmmmmmmmmmmmmmmmmmmmmmmmmmmmmmmmmmmmmmmmmmmm",
"mmmmmmmmmmmmmmmmmmmmmmmmmmmmmmmmmmmmmmmmmmmmmmmmmmmmmmmmmmmmmmmmmmmmmmmmmmmmmmmmmmmmmmmmmmmmmmmmmmmmmmmmmmmmmmmmmmmmmmmmmmmmmmmm"
};
