/* XPM */
static char *_520205809167[] = {
/* columns rows colors chars-per-pixel */
"64 64 42 1 ",
"  c #8E8F91",
". c #929397",
"X c #949599",
"o c #97989B",
"O c #9A9B9E",
"+ c #9D9EA2",
"@ c #9FA0A4",
"# c #A2A3A5",
"$ c #A5A6A9",
"% c #A7ABAE",
"& c #A9ABAE",
"* c #ABAEB1",
"= c #ADB1B3",
"- c #B2B3B5",
"; c #B4B6B9",
": c #B6B9BB",
"> c #BCBDBF",
", c #BDBEC0",
"< c #BFC0C2",
"1 c #C3C4C6",
"2 c #C5C6C8",
"3 c #C7C8CA",
"4 c #CACBCD",
"5 c #CECED1",
"6 c #CFD0D2",
"7 c #D4D5D7",
"8 c #D6D6D8",
"9 c #D7D8DA",
"0 c #DBDCDE",
"q c #DEDFE0",
"w c #DFE0E2",
"e c #E2E3E5",
"r c #E5E6E8",
"t c #E7E8E9",
"y c #EBEBEC",
"u c #EFF0EF",
"i c #EFEFF0",
"p c #EFF0F1",
"a c #F2F2F3",
"s c #F6F7F8",
"d c #F7F8F8",
"f c None",
/* pixels */
"ffffffffffffffffffffffffffffffffffffffffffffffffffffffffffffffff",
"fffffffffffffffffffffffffffdadddddssafffffffffffffffffffffffffff",
"fffffffffffffffffffffaaaasssuuuuauuuuyr7ffffffffffffffffffffffff",
"fffffffffffffffffaaiaauuuyyyuyyyyuyyrre0744fffffffffffffffffffff",
"ffffffffffffffffiaiyiyyyyyuyuyyuuaytrrtq974444ffffffffffffffffff",
"fffffffffffffffaaaiiyyyiyuyyyyyuytttrtrr99966666ffffffffffffffff",
"fffffffffffffffaaaiiyiyyyyyuuyuyrrrttrrr0777444447ffffffffffffff",
"ffffffffffffffaaaaiiiyiyyuyyyutrrrrrtttrq7977544453fffffffffffff",
"fffffffffffffaapaaaaiyiyyiyyyrrrrrrrrrrtr97777624441ffffffffffff",
"ffffffffffffsapaiaiaiiyyyyyyrrrrrrrrrrrrtq77779634411fffffffffff",
"fffffffffffsiaaaaaaaaiyyiyrrrrrrtererrrrrr987779734411ffffffffff",
"ffffffffffsaaaaaiaaaaayyyrrrrrrrtrrtrrrrrrq997777744112fffffffff",
"fffffffffsaaaiaaaaaaaiirrrrrrrrretrerrrrrrw7997777744121ffffffff",
"ffffffffsaaaaaaaaaiyyyrwqqwwweeerertrtrtrrr879997779721<2fffffff",
"fffffffsaaaaaaiiyyttttew000000000qqqqweeeerq77790907961111ffffff",
"ffffffssaaiiiitrttttyreeq0000000000000000qq721244555472>::ffffff",
"fffffdaayyytytyyrttyreerq00000q00q00q0000q723<1,>>11><>->;>fffff",
"ffffadytytttytryytyreeeeeq0q000000000000094442>>>>>>11>-&;:fffff",
"ffffdsyttttttytryyyrqeeeeq00000000000000q64223<>>>>>>1>;&&&>ffff",
"fffasaytyttytttyyyteeeeeee000q000000000q9312122>>>>>>>>>;&&&ffff",
"fffssaptttyttttyttereeeeeeq00000q0000qqq42122131>>>>>>>-,-&%=fff",
"fffsaapttytttyytteeereeeeee0000000qqqqq412211223>>>>>>>--;=**fff",
"fffsaaayttttyytttreeeeeeeeeq00000qqq9q72121221122>>>>><-=;*=-fff",
"ffaaaaaitttyyttyreeeeeereeee00qqqqq9q921212112124<>>>><----%*fff",
"ffsaiaairtyyttyreeeeeeeeeeeeqqqq9q0004121212122122,>>><---;*&*ff",
"ffsaaaaattyttrteeeeeeeeeeerreq009q0q711221212121121>>>,;----&*ff",
"ffsaaaaayytttyeeeeeeeeeeerrreq00q009312112121212213<>><;----**ff",
"fpaaiaaaattyryeeeeeqeeerreeere009q041212212121211222>,<;=----&ff",
"fasaapaaattyrreeeeeeeereeeeeerq0qq7111211212121221221>>;&---;=*f",
"faaaaaaaayttreeeeeerreeeeeeeeeeq092222122121212112213>>>---=-;*f",
"faaaaaaaairyeeeeerreeeeeeeeqeeeqq411212112121212121222>:-------f",
"ppaaaapaaytreeereeeeeeeeeeeeeeee73221212212121212121121:------:f",
"aaaaaaaaaptrrrtrwwwqwwwwwqwqqqqq31442333222222221121122>------->",
"uauayauupprqqq99q8qqq7q8988777751>>11>>,<<11112122322242--;;-;;>",
"uuyuyyyuyyr9677777776877877777713<>><1,>>>,>>>>>>,,,,<1>$$&$&$$-",
"fuyyuyyyaywq7778777777777777784<11>>>>1<>>>>>,>>>>>>>>>-$#####$f",
"ftyuyuuuyyee9777777777778777861212,>>>>1<,>>>>>>>>>>><-*$#####$f",
"f0yuyuyyytqqw877777777787778841<111>>>>><1,>>,>>>>>><;&*$#####&f",
"fftuyyyuytwwwq777777787777786<2<112,>,>>>,1,>>>>>,>,,&&*&####$ff",
"ffqyuyyyytwwww9787777778777741<2<111>>>>>>,1<,>>>>><-$&&&####&ff",
"ff7tyyyyirwwwwq8777777777785<22<1111,>>>,>>>11>>,,<-%%%%&####fff",
"fffeuyyyyrwwwwwq7777777777722<<21111<,>>>>,>><1>,,,&%%%**###$fff",
"fff9yuyuyrwwwwwwq7777877886<<<2<11111,>>>>>>>><1,,*&%%%%*##$-fff",
"fff8eyyyitwwwwwwq777777788222<<211112<>>,>>>>>>>1:%%&&%&-$$*ffff",
"ffff9yyuywwwwwwwwq77777785<<<2<2111111,>>>>>,>>,,==&&&&*;&$&ffff",
"ffff7eyyiwwwwwwwqw87788772<22<2<1<1111,>>>>>>>>>&%*=&&-=-$#fffff",
"ffff78yuywwwwwwwwwq777785<<2<22<1111111>>>,>>>,;%%%=:-&$&&&fffff",
"fffff7wyywwwwwwwwwqq77772<2<2<<211<1112,>>>>>,>$%===&--&&&ffffff",
"ffffff0yywqeqqqewwwe877411<12<2<11<1113<,,,,,,*===&%%%*=**ffffff",
"ffffff0rywqqqeqqwqwwq8711111<2<211111<12,,,,,,-*&%%%%%%*=,ffffff",
"fffffffryqqq0eeqeqwqe04111112<2<1<111112,,,1,%%%%%%%****=fffffff",
"fffffffftqqq0099877755,,<<11<3<<1111<11,1,1,%%%%%**=*$+$ffffffff",
"fffffffff41111<<<,1,<1-%**=-:,<<1111112331,=%**=*%@@++$fffffffff",
"ffffffffff>111>11,,1<<,*%%%%%%%%===,,12113,**%$++++@+$ffffffffff",
"fffffffffff;>11<,1<<1<1=%%%%%%%%%%*==%**-=&++++++++@@fffffffffff",
"ffffffffffff*->11,11<<1:%%%%%%%%*==*%%*$++$++++++++@ffffffffffff",
"fffffffffffff**:<1<<1<1,*%%%%**==%%%%%++.X+#++++++$fffffffffffff",
"ffffffffffffff*&=,1<<<<1-%%*==**%%%%++. .X.++++++$ffffffffffffff",
"fffffffffffffff=%&-<1<<,<*===%%%*%$+.X...X.+$+++#fffffffffffffff",
"ffffffffffffffff**%*:1113:*%%%%*%+.XXX.X...X$$$*ffffffffffffffff",
"fffffffffffffffffff**-121<&%%*&+...X..X++o+o+$*fffffffffffffffff",
"ffffffffffffffffffffff-:<<=&&#X..ooO+++++++++fffffffffffffffffff",
"fffffffffffffffffffffffff4<&+XX++o.X. ffffffffffffffffffffffffff",
"ffffffffffffffffffffffffffffffffffffffffffffffffffffffffffffffff"
};
